<?xml version="1.0" encoding="UTF-8" standalone="no"?>
<svg xmlns:inkscape="http://www.inkscape.org/namespaces/inkscape" xmlns:sodipodi="http://sodipodi.sourceforge.net/DTD/sodipodi-0.dtd" xmlns="http://www.w3.org/2000/svg" xmlns:svg="http://www.w3.org/2000/svg" id="a" viewBox="0 0 1800 600" version="1.1" sodipodi:docname="Logo_VoorVoet.svg" inkscape:version="1.2.2 (b0a8486541, 2022-12-01)" width="1800" height="600">
  <defs id="defs4">
    <style id="style2">.m{fill:#005152;}.n{fill:#00a8a2;}.o{fill:#05847c;}.p{fill:#3b3b3c;}.q{fill:#4d4d4f;}</style>
  </defs>
  <g id="g261">
    <g id="g3865" transform="translate(4.9809731,12.485121)">
      <g id="b" transform="matrix(3,0,0,3,-4.9919462,-4.985121)">
        <g id="c">
          <path class="m" d="m 79.8,59.81 c -0.55,1.57 -1.08,3.15 -1.63,4.71 -1.78,5.07 -3.38,10.21 -7.51,14.01 -1.22,1.12 -2.49,2.01 -3.81,2.68 0.99,0.07 1.98,0.09 2.98,0.07 4.52,-0.1 9.04,-0.35 13.56,-0.51 0.4,-1.26 0.87,-2.57 1.43,-3.98 2.44,-6.17 0.03,-12.7 -5.03,-16.98 z" id="path6"></path>
          <path class="m" d="m 58.36,83.68 c 0.73,1.5 1.48,2.99 2.21,4.48 2.35,4.84 4.89,9.61 4.67,15.2 -0.06,1.65 -0.32,3.18 -0.78,4.57 0.74,-0.65 1.46,-1.33 2.15,-2.05 3.12,-3.25 6.13,-6.6 9.21,-9.89 -0.61,-1.17 -1.22,-2.43 -1.83,-3.82 -2.67,-6.09 -9.02,-9.02 -15.64,-8.5 z" id="path8"></path>
          <path class="m" d="m 60.22,115.64 c 1.58,0.55 3.18,1.08 4.75,1.63 5.11,1.78 10.29,3.37 14.12,7.49 1.13,1.21 2.03,2.48 2.71,3.78 0.07,-0.98 0.09,-1.97 0.06,-2.96 -0.11,-4.49 -0.37,-8.98 -0.54,-13.47 -1.27,-0.4 -2.59,-0.87 -4.01,-1.42 -6.22,-2.44 -12.79,-0.05 -17.09,4.96 z" id="path10"></path>
          <path class="m" d="m 84.29,136.97 c 1.51,-0.72 3.01,-1.47 4.51,-2.18 4.87,-2.33 9.66,-4.84 15.29,-4.61 1.66,0.07 3.2,0.33 4.61,0.78 -0.65,-0.74 -1.34,-1.46 -2.07,-2.14 -3.28,-3.1 -6.66,-6.1 -9.97,-9.17 -1.18,0.6 -2.45,1.21 -3.84,1.81 -6.13,2.64 -9.06,8.94 -8.53,15.52 z" id="path12"></path>
          <path class="m" d="m 116.46,135.19 c 0.55,-1.57 1.08,-3.15 1.63,-4.71 1.78,-5.07 3.38,-10.21 7.51,-14.01 1.22,-1.12 2.49,-2.01 3.81,-2.68 -0.99,-0.07 -1.98,-0.09 -2.99,-0.07 -4.52,0.1 -9.04,0.35 -13.56,0.51 -0.4,1.26 -0.87,2.57 -1.43,3.98 -2.44,6.17 -0.03,12.7 5.03,16.98 z" id="path14"></path>
          <path class="m" d="m 111.97,58.03 c -1.51,0.72 -3.01,1.47 -4.51,2.18 -4.87,2.33 -9.66,4.84 -15.29,4.61 -1.66,-0.07 -3.2,-0.33 -4.61,-0.78 0.65,0.74 1.34,1.46 2.07,2.14 3.28,3.1 6.66,6.1 9.97,9.17 1.18,-0.6 2.45,-1.21 3.84,-1.81 6.13,-2.64 9.06,-8.94 8.53,-15.52 z" id="path16"></path>
          <path class="m" d="m 136.04,79.36 c -1.58,-0.55 -3.18,-1.08 -4.75,-1.63 -5.11,-1.78 -10.29,-3.37 -14.12,-7.49 -1.13,-1.21 -2.03,-2.48 -2.71,-3.78 -0.07,0.98 -0.09,1.97 -0.06,2.96 0.11,4.49 0.37,8.98 0.54,13.47 1.27,0.4 2.59,0.87 4.01,1.42 6.22,2.44 12.79,0.05 17.09,-4.96 z" id="path18"></path>
          <path class="m" d="m 131.02,91.64 c 0.06,-1.65 0.32,-3.18 0.78,-4.57 -0.74,0.65 -1.46,1.33 -2.15,2.05 -3.12,3.25 -6.13,6.6 -9.21,9.89 0.61,1.17 1.22,2.43 1.83,3.82 2.67,6.09 9.02,9.02 15.64,8.5 -0.73,-1.5 -1.48,-2.99 -2.21,-4.48 -2.35,-4.84 -4.89,-9.61 -4.67,-15.2 z" id="path20"></path>
        </g>
        <g id="d">
          <path class="o" d="m 84.83,76.79 c -0.56,1.4 -1.02,2.72 -1.43,3.98 2.66,-0.09 5.31,-0.14 7.97,-0.12 2.15,-1.75 4.77,-3.53 8.24,-5.3 -3.31,-3.06 -6.7,-6.06 -9.97,-9.17 -0.73,-0.69 -1.42,-1.4 -2.07,-2.14 -3.06,-0.98 -5.5,-2.89 -7.2,-5.81 -0.2,0.53 -0.39,1.05 -0.57,1.58 5.06,4.28 7.48,10.81 5.03,16.98 z" id="path23"></path>
          <path class="o" d="m 66.85,81.22 c 1.31,-0.67 2.58,-1.56 3.81,-2.68 4.13,-3.79 5.73,-8.93 7.51,-14.01 0.55,-1.56 1.07,-3.14 1.63,-4.71 C 79.46,59.53 79.11,59.26 78.76,59 73.92,55.44 67.41,55.41 61.99,58.92 c -5.68,3.67 -8.69,10.34 -6.81,16.87 0.18,0.62 0.38,1.24 0.6,1.85 0.6,0.42 1.22,0.82 1.9,1.16 2.91,1.48 6.01,2.2 9.19,2.42 z" id="path25"></path>
          <path class="o" d="m 74,92.17 c 0.61,1.39 1.22,2.64 1.83,3.82 1.81,-1.93 3.65,-3.83 5.54,-5.68 0.27,-2.75 0.85,-5.85 2.04,-9.54 -4.52,0.16 -9.04,0.41 -13.56,0.51 -1,0.02 -2,0 -2.98,-0.07 -2.86,1.46 -5.94,1.81 -9.22,0.94 0.24,0.51 0.48,1.02 0.72,1.52 6.62,-0.52 12.97,2.41 15.64,8.5 z" id="path27"></path>
          <path class="o" d="m 77.31,110.67 c 1.41,0.56 2.74,1.02 4.01,1.42 -0.1,-2.64 -0.16,-5.28 -0.13,-7.91 -1.77,-2.14 -3.56,-4.75 -5.35,-8.19 -3.08,3.29 -6.09,6.64 -9.21,9.89 -0.69,0.72 -1.41,1.4 -2.15,2.05 -0.98,3.04 -2.9,5.46 -5.84,7.14 0.53,0.19 1.06,0.39 1.6,0.57 4.3,-5.02 10.87,-7.4 17.09,-4.96 z" id="path29"></path>
          <path class="o" d="m 81.79,128.53 c -0.68,-1.31 -1.58,-2.57 -2.71,-3.78 -3.83,-4.11 -9.01,-5.71 -14.12,-7.49 -1.57,-0.55 -3.17,-1.07 -4.75,-1.63 -0.29,0.33 -0.56,0.68 -0.83,1.04 -3.57,4.8 -3.59,11.27 -0.05,16.66 3.71,5.64 10.43,8.65 17,6.8 0.63,-0.18 1.25,-0.38 1.86,-0.59 0.42,-0.59 0.82,-1.21 1.17,-1.88 1.49,-2.89 2.21,-5.96 2.42,-9.12 z" id="path31"></path>
          <path class="o" d="m 92.81,121.46 c 1.39,-0.6 2.66,-1.2 3.84,-1.81 -1.95,-1.8 -3.87,-3.63 -5.73,-5.51 -2.77,-0.27 -5.89,-0.86 -9.61,-2.04 0.17,4.49 0.43,8.98 0.54,13.47 0.03,0.99 0,1.98 -0.06,2.96 1.47,2.84 1.84,5.9 0.96,9.16 0.51,-0.23 1.02,-0.47 1.53,-0.72 -0.54,-6.58 2.4,-12.88 8.53,-15.52 z" id="path33"></path>
          <path class="o" d="m 108.69,130.96 c -1.41,-0.45 -2.94,-0.71 -4.61,-0.78 -5.63,-0.23 -10.42,2.28 -15.29,4.61 -1.5,0.72 -3,1.46 -4.51,2.18 0.04,0.44 0.09,0.88 0.15,1.32 0.89,5.91 5.49,10.5 11.82,11.84 6.63,1.4 13.52,-1.2 16.84,-7.13 0.32,-0.57 0.62,-1.15 0.9,-1.75 -0.12,-0.71 -0.29,-1.42 -0.52,-2.13 -1.01,-3.09 -2.69,-5.77 -4.79,-8.16 z" id="path35"></path>
          <path class="o" d="m 111.43,118.21 c 0.56,-1.4 1.02,-2.72 1.43,-3.98 -2.66,0.09 -5.31,0.14 -7.97,0.12 -2.15,1.75 -4.77,3.53 -8.24,5.3 3.31,3.06 6.7,6.06 9.97,9.17 0.73,0.69 1.42,1.4 2.07,2.14 3.06,0.98 5.5,2.89 7.2,5.81 0.2,-0.53 0.39,-1.05 0.57,-1.58 -5.06,-4.28 -7.48,-10.81 -5.03,-16.98 z" id="path37"></path>
          <path class="o" d="m 114.47,66.47 c 0.68,1.31 1.58,2.57 2.71,3.78 3.83,4.11 9.01,5.71 14.12,7.49 1.57,0.55 3.17,1.07 4.75,1.63 0.29,-0.33 0.56,-0.68 0.83,-1.04 3.57,-4.8 3.59,-11.27 0.05,-16.66 -3.71,-5.64 -10.43,-8.65 -17,-6.8 -0.63,0.18 -1.25,0.38 -1.86,0.59 -0.42,0.59 -0.82,1.21 -1.17,1.88 -1.49,2.89 -2.21,5.96 -2.42,9.12 z" id="path39"></path>
          <path class="o" d="m 129.41,113.78 c -1.31,0.67 -2.59,1.56 -3.81,2.68 -4.13,3.79 -5.73,8.93 -7.51,14.01 -0.55,1.56 -1.07,3.14 -1.63,4.71 0.34,0.29 0.69,0.56 1.04,0.82 4.84,3.56 11.35,3.59 16.77,0.08 5.68,-3.67 8.69,-10.34 6.81,-16.87 -0.18,-0.62 -0.38,-1.24 -0.6,-1.85 -0.6,-0.42 -1.22,-0.82 -1.9,-1.16 -2.91,-1.48 -6.01,-2.2 -9.19,-2.42 z" id="path41"></path>
          <path class="o" d="m 122.26,102.83 c -0.61,-1.39 -1.22,-2.64 -1.83,-3.82 -1.81,1.93 -3.65,3.83 -5.54,5.68 -0.27,2.75 -0.85,5.85 -2.04,9.54 4.52,-0.16 9.04,-0.41 13.56,-0.51 1,-0.02 2,0 2.99,0.07 2.86,-1.46 5.94,-1.81 9.22,-0.94 -0.24,-0.51 -0.48,-1.02 -0.72,-1.52 -6.62,0.52 -12.97,-2.41 -15.64,-8.5 z" id="path43"></path>
          <path class="o" d="m 103.45,73.54 c -1.39,0.6 -2.66,1.2 -3.84,1.81 1.95,1.8 3.87,3.63 5.73,5.51 2.77,0.27 5.89,0.86 9.61,2.04 -0.17,-4.49 -0.43,-8.98 -0.54,-13.47 -0.03,-0.99 0,-1.98 0.06,-2.96 -1.47,-2.84 -1.84,-5.9 -0.96,-9.16 -0.51,0.23 -1.02,0.47 -1.53,0.72 0.54,6.58 -2.4,12.88 -8.53,15.52 z" id="path45"></path>
          <path class="o" d="m 87.57,64.04 c 1.41,0.45 2.94,0.71 4.61,0.78 5.63,0.23 10.42,-2.28 15.29,-4.61 1.5,-0.72 3,-1.46 4.51,-2.18 -0.04,-0.44 -0.09,-0.88 -0.15,-1.32 -0.89,-5.91 -5.49,-10.5 -11.82,-11.84 -6.63,-1.4 -13.52,1.2 -16.84,7.13 -0.32,0.57 -0.62,1.15 -0.9,1.75 0.12,0.71 0.29,1.42 0.52,2.13 1.01,3.09 2.69,5.77 4.79,8.16 z" id="path47"></path>
          <path class="o" d="m 131.8,87.07 c -0.45,1.4 -0.71,2.92 -0.78,4.57 -0.22,5.59 2.32,10.35 4.67,15.2 0.72,1.49 1.48,2.98 2.21,4.48 0.44,-0.03 0.88,-0.08 1.32,-0.15 5.95,-0.88 10.56,-5.43 11.89,-11.72 1.39,-6.59 -1.23,-13.43 -7.21,-16.74 -0.58,-0.32 -1.16,-0.61 -1.76,-0.9 -0.71,0.12 -1.43,0.29 -2.15,0.52 -3.11,0.99 -5.81,2.66 -8.21,4.74 z" id="path49"></path>
          <path class="o" d="m 118.95,84.33 c -1.41,-0.56 -2.74,-1.02 -4.01,-1.42 0.1,2.64 0.16,5.28 0.13,7.91 1.77,2.14 3.56,4.75 5.35,8.19 3.08,-3.29 6.09,-6.64 9.21,-9.89 0.69,-0.72 1.41,-1.4 2.15,-2.05 0.98,-3.04 2.9,-5.46 5.84,-7.14 -0.53,-0.19 -1.06,-0.39 -1.6,-0.57 -4.3,5.02 -10.87,7.4 -17.09,4.96 z" id="path51"></path>
          <path class="o" d="m 64.46,107.93 c 0.45,-1.4 0.71,-2.92 0.78,-4.57 0.22,-5.59 -2.32,-10.35 -4.67,-15.2 -0.72,-1.49 -1.48,-2.98 -2.21,-4.48 -0.44,0.03 -0.88,0.08 -1.32,0.15 -5.95,0.88 -10.56,5.43 -11.89,11.72 -1.39,6.59 1.23,13.43 7.21,16.74 0.58,0.32 1.16,0.61 1.76,0.9 0.71,-0.12 1.43,-0.29 2.15,-0.52 3.11,-0.99 5.81,-2.66 8.21,-4.74 z" id="path53"></path>
        </g>
        <g id="e">
          <g id="f">
            <path class="n" d="m 61.98,58.91 c 5.42,-3.51 11.94,-3.48 16.77,0.08 0.36,0.26 0.71,0.54 1.04,0.82 0.19,-0.53 0.38,-1.06 0.57,-1.58 -0.39,-0.67 -0.75,-1.4 -1.06,-2.18 -1.81,-4.55 -3.51,-9.2 -7.12,-12.65 -2.57,-2.46 -5.39,-4.86 -8.52,-6.49 -7.13,-3.7 -14.8,-0.25 -17.4,7.4 -0.18,0.53 -0.31,1.08 -0.46,1.63 -2.02,7.85 -0.2,15.22 2.98,22.38 1.62,3.66 3.71,7 6.98,9.31 -0.22,-0.61 -0.42,-1.23 -0.6,-1.85 -1.88,-6.53 1.14,-13.2 6.81,-16.87 z" id="path56"></path>
            <path class="n" d="m 114.47,66.47 c 0.21,-3.16 0.93,-6.23 2.42,-9.12 0.35,-0.67 0.75,-1.29 1.17,-1.88 -1.54,0.53 -3.05,1.16 -4.55,1.85 -0.88,3.25 -0.51,6.31 0.96,9.16 z" id="path58"></path>
            <path class="n" d="m 45.14,95.55 c 1.33,-6.29 5.95,-10.84 11.89,-11.72 0.44,-0.07 0.88,-0.12 1.32,-0.15 -0.25,-0.51 -0.49,-1.01 -0.72,-1.52 -0.76,-0.2 -1.52,-0.46 -2.3,-0.8 C 50.81,79.41 46.3,77.31 41.3,77.4 37.74,77.46 34.03,77.74 30.67,78.79 23.01,81.18 20.05,89 23.66,96.25 c 0.25,0.51 0.55,0.99 0.83,1.48 4.16,6.98 10.69,10.93 18.04,13.77 3.76,1.45 7.61,2.37 11.58,1.7 -0.59,-0.28 -1.18,-0.58 -1.76,-0.9 -5.98,-3.31 -8.6,-10.15 -7.21,-16.74 z" id="path60"></path>
            <path class="n" d="m 87.57,64.04 c -2.1,-2.39 -3.78,-5.07 -4.79,-8.16 -0.23,-0.72 -0.4,-1.43 -0.52,-2.13 -0.7,1.45 -1.32,2.96 -1.88,4.48 1.7,2.92 4.13,4.83 7.2,5.81 z" id="path62"></path>
            <path class="n" d="M 66.85,81.22 C 63.67,81 60.57,80.28 57.66,78.8 c -0.68,-0.35 -1.3,-0.74 -1.9,-1.16 0.54,1.53 1.18,3.03 1.87,4.52 3.28,0.88 6.36,0.52 9.22,-0.94 z" id="path64"></path>
            <path class="n" d="m 59.34,133.33 c -3.54,-5.39 -3.52,-11.86 0.05,-16.66 0.27,-0.36 0.54,-0.7 0.83,-1.04 -0.53,-0.19 -1.07,-0.38 -1.6,-0.57 -0.68,0.39 -1.4,0.74 -2.19,1.05 -4.58,1.79 -9.26,3.47 -12.72,7.05 -2.47,2.55 -4.89,5.34 -6.52,8.45 -3.71,7.07 -0.23,14.7 7.48,17.3 0.54,0.18 1.09,0.31 1.64,0.46 7.91,2.02 15.33,0.23 22.53,-2.92 3.68,-1.61 7.04,-3.67 9.36,-6.92 -0.62,0.21 -1.24,0.41 -1.86,0.59 -6.57,1.85 -13.3,-1.15 -17,-6.8 z" id="path66"></path>
            <path class="n" d="m 96.26,150.13 c -6.34,-1.33 -10.93,-5.93 -11.82,-11.84 -0.07,-0.44 -0.12,-0.88 -0.15,-1.32 -0.51,0.24 -1.02,0.48 -1.53,0.72 -0.2,0.75 -0.47,1.51 -0.8,2.28 -1.96,4.48 -4.06,8.96 -3.96,13.93 0.07,3.54 0.35,7.22 1.41,10.56 2.42,7.62 10.3,10.57 17.59,7 0.51,-0.25 0.99,-0.55 1.49,-0.82 7.02,-4.12 10.98,-10.6 13.83,-17.89 1.46,-3.73 2.38,-7.56 1.69,-11.49 -0.29,0.59 -0.58,1.17 -0.9,1.75 -3.32,5.93 -10.2,8.52 -16.84,7.13 z" id="path68"></path>
            <path class="n" d="m 64.46,107.93 c -2.4,2.08 -5.1,3.75 -8.21,4.74 -0.72,0.23 -1.44,0.4 -2.15,0.52 1.46,0.7 2.98,1.31 4.52,1.88 2.94,-1.68 4.86,-4.1 5.84,-7.14 z" id="path70"></path>
            <path class="n" d="m 134.28,136.09 c -5.42,3.51 -11.94,3.48 -16.77,-0.08 -0.36,-0.26 -0.71,-0.54 -1.04,-0.82 -0.19,0.53 -0.38,1.06 -0.57,1.58 0.39,0.67 0.75,1.4 1.06,2.18 1.81,4.55 3.51,9.2 7.12,12.65 2.57,2.46 5.39,4.86 8.52,6.49 7.13,3.7 14.8,0.25 17.4,-7.4 0.18,-0.53 0.31,-1.08 0.46,-1.63 2.02,-7.85 0.2,-15.22 -2.98,-22.38 -1.62,-3.66 -3.71,-7 -6.98,-9.31 0.22,0.61 0.42,1.23 0.6,1.85 1.88,6.53 -1.14,13.2 -6.81,16.87 z" id="path72"></path>
            <path class="n" d="m 81.79,128.53 c -0.21,3.16 -0.93,6.23 -2.42,9.12 -0.35,0.67 -0.75,1.29 -1.17,1.88 1.54,-0.53 3.05,-1.16 4.55,-1.85 0.88,-3.25 0.51,-6.31 -0.96,-9.16 z" id="path74"></path>
            <path class="n" d="m 108.69,130.96 c 2.1,2.39 3.78,5.07 4.79,8.16 0.23,0.72 0.4,1.43 0.52,2.13 0.7,-1.45 1.32,-2.96 1.88,-4.48 -1.7,-2.92 -4.13,-4.83 -7.2,-5.81 z" id="path76"></path>
            <path class="n" d="m 171.77,97.28 c -4.16,-6.98 -10.69,-10.93 -18.04,-13.77 -3.76,-1.45 -7.61,-2.37 -11.58,-1.7 0.59,0.28 1.18,0.58 1.76,0.9 5.98,3.31 8.6,10.15 7.21,16.74 -1.33,6.29 -5.95,10.84 -11.89,11.72 -0.44,0.07 -0.88,0.12 -1.32,0.15 0.25,0.51 0.49,1.01 0.72,1.52 0.76,0.2 1.52,0.46 2.3,0.8 4.52,1.95 9.03,4.05 14.03,3.96 3.56,-0.06 7.27,-0.34 10.63,-1.39 7.66,-2.39 10.62,-10.21 7.01,-17.46 -0.25,-0.51 -0.55,-0.99 -0.83,-1.48 z" id="path78"></path>
            <path class="n" d="m 129.41,113.78 c 3.18,0.22 6.28,0.94 9.19,2.42 0.68,0.35 1.3,0.74 1.9,1.16 -0.54,-1.53 -1.18,-3.03 -1.87,-4.52 -3.28,-0.88 -6.36,-0.52 -9.22,0.94 z" id="path80"></path>
            <path class="n" d="m 136.92,61.67 c 3.54,5.39 3.52,11.86 -0.05,16.66 -0.27,0.36 -0.54,0.7 -0.83,1.04 0.53,0.19 1.07,0.38 1.6,0.57 0.68,-0.39 1.4,-0.74 2.19,-1.05 4.58,-1.79 9.26,-3.47 12.72,-7.05 2.47,-2.55 4.89,-5.34 6.52,-8.45 3.71,-7.07 0.23,-14.7 -7.48,-17.3 -0.54,-0.18 -1.09,-0.31 -1.64,-0.46 -7.91,-2.02 -15.33,-0.23 -22.53,2.92 -3.68,1.61 -7.04,3.67 -9.36,6.92 0.62,-0.21 1.24,-0.41 1.86,-0.59 6.57,-1.85 13.3,1.15 17,6.8 z" id="path82"></path>
            <path class="n" d="m 99.99,44.87 c 6.34,1.33 10.93,5.93 11.82,11.84 0.07,0.44 0.12,0.88 0.15,1.32 0.51,-0.24 1.02,-0.48 1.53,-0.72 0.2,-0.75 0.47,-1.51 0.8,-2.28 1.96,-4.48 4.06,-8.96 3.96,-13.93 -0.07,-3.54 -0.35,-7.22 -1.41,-10.56 -2.42,-7.62 -10.3,-10.57 -17.59,-7 -0.51,0.25 -0.99,0.55 -1.49,0.82 -7.02,4.12 -10.98,10.6 -13.83,17.89 -1.46,3.73 -2.38,7.56 -1.69,11.49 0.29,-0.59 0.58,-1.17 0.9,-1.75 3.32,-5.93 10.2,-8.52 16.84,-7.13 z" id="path84"></path>
            <path class="n" d="m 131.8,87.07 c 2.4,-2.08 5.1,-3.75 8.21,-4.74 0.72,-0.23 1.44,-0.4 2.15,-0.52 -1.46,-0.7 -2.98,-1.31 -4.52,-1.88 -2.94,1.68 -4.86,4.1 -5.84,7.14 z" id="path86"></path>
            <path class="n" d="m 115.08,90.82 c 0.02,-2.64 -0.04,-5.27 -0.13,-7.91 -3.72,-1.18 -6.84,-1.77 -9.61,-2.04 0.48,0.48 0.95,0.96 1.42,1.45 2.59,2.72 5.42,4.99 8.32,8.5 z" id="path88"></path>
            <path class="n" d="m 115.05,92.84 c -0.1,3.74 0.29,7.33 -0.16,11.85 1.89,-1.85 3.73,-3.75 5.54,-5.68 -1.79,-3.45 -3.59,-6.05 -5.35,-8.19 0,0.67 0,1.35 -0.03,2.02 z" id="path90"></path>
            <path class="n" d="m 104.89,114.35 c 2.65,0.03 5.31,-0.03 7.97,-0.12 1.19,-3.69 1.77,-6.79 2.04,-9.54 -0.48,0.47 -0.97,0.95 -1.46,1.41 -2.73,2.57 -5.02,5.37 -8.55,8.25 z" id="path92"></path>
            <path class="n" d="m 105.33,80.86 c -1.86,-1.88 -3.78,-3.71 -5.73,-5.51 -3.47,1.77 -6.09,3.55 -8.24,5.3 0.68,0 1.36,0.01 2.04,0.03 3.77,0.1 7.38,-0.27 11.93,0.18 z" id="path94"></path>
            <path class="n" d="m 91.37,80.65 c -2.65,-0.03 -5.31,0.03 -7.97,0.12 -1.19,3.69 -1.77,6.79 -2.04,9.54 0.48,-0.47 0.97,-0.95 1.46,-1.41 2.73,-2.57 5.02,-5.37 8.55,-8.25 z" id="path96"></path>
            <path class="n" d="m 81.36,90.31 c -1.89,1.85 -3.73,3.75 -5.54,5.68 1.79,3.45 3.59,6.05 5.35,8.19 0,-0.67 0,-1.35 0.03,-2.02 0.1,-3.74 -0.29,-7.33 0.16,-11.85 z" id="path98"></path>
            <path class="n" d="m 81.18,104.18 c -0.02,2.64 0.04,5.27 0.13,7.91 3.72,1.18 6.84,1.77 9.61,2.04 -0.48,-0.48 -0.95,-0.96 -1.42,-1.45 -2.59,-2.72 -5.42,-4.99 -8.32,-8.5 z" id="path100"></path>
            <path class="n" d="m 90.92,114.14 c 1.86,1.88 3.78,3.71 5.73,5.51 3.47,-1.77 6.09,-3.55 8.24,-5.3 -0.68,0 -1.36,-0.01 -2.04,-0.03 -3.77,-0.1 -7.38,0.27 -11.93,-0.18 z" id="path102"></path>
          </g>
          <g id="g">
            <g id="h">
              <path class="o" d="m 43.66,75.93 c 1.52,0.46 3.91,0.35 4.26,-1.13 0.4,-1.74 -0.72,-2.63 -2.12,-3.13 -1.89,-0.67 -4.55,0.38 -4.48,1.91 0.05,1.15 0.95,1.93 2.35,2.35 z" id="path105"></path>
              <path class="o" d="m 45.03,120.15 c 1.39,-0.74 3.01,-2.5 2.2,-3.79 -0.95,-1.51 -2.38,-1.36 -3.73,-0.73 -1.81,0.85 -2.94,3.47 -1.8,4.5 0.85,0.78 2.04,0.7 3.33,0.01 z" id="path107"></path>
              <path class="o" d="m 75.37,147.33 c -1.75,-0.4 -2.65,0.71 -3.15,2.1 -0.67,1.88 0.4,4.52 1.93,4.46 1.16,-0.05 1.94,-0.94 2.36,-2.33 0.46,-1.5 0.34,-3.89 -1.15,-4.23 z" id="path109"></path>
              <path class="o" d="m 117.21,148.09 c -1.52,0.94 -1.37,2.36 -0.72,3.7 0.86,1.8 3.5,2.92 4.54,1.8 0.79,-0.85 0.7,-2.03 0,-3.31 -0.75,-1.39 -2.53,-2.99 -3.82,-2.19 z" id="path111"></path>
              <path class="o" d="m 152.6,119.07 c -1.52,-0.46 -3.91,-0.35 -4.26,1.13 -0.4,1.74 0.72,2.63 2.12,3.13 1.89,0.67 4.55,-0.38 4.48,-1.91 -0.05,-1.15 -0.95,-1.93 -2.35,-2.35 z" id="path113"></path>
              <path class="o" d="m 151.23,74.85 c -1.39,0.74 -3.01,2.5 -2.2,3.79 0.95,1.51 2.38,1.36 3.73,0.73 1.81,-0.85 2.94,-3.47 1.8,-4.5 -0.85,-0.78 -2.04,-0.7 -3.33,-0.01 z" id="path115"></path>
              <path class="o" d="m 120.89,47.67 c 1.75,0.4 2.65,-0.71 3.15,-2.1 0.67,-1.88 -0.4,-4.52 -1.93,-4.46 -1.16,0.05 -1.94,0.94 -2.36,2.33 -0.46,1.5 -0.34,3.89 1.15,4.23 z" id="path117"></path>
              <path class="o" d="m 79.05,46.91 c 1.52,-0.94 1.37,-2.36 0.72,-3.7 -0.86,-1.8 -3.5,-2.92 -4.54,-1.8 -0.79,0.85 -0.7,2.03 0,3.31 0.75,1.39 2.53,2.99 3.82,2.19 z" id="path119"></path>
            </g>
            <g id="i">
              <path class="o" d="m 39.96,69.87 c 1.91,0.54 4.05,-0.2 4.36,-1.59 0.38,-1.71 -0.83,-2.44 -2.14,-2.92 -1.78,-0.65 -4,0.12 -4.46,1.42 -0.42,1.21 0.6,2.61 2.24,3.08 z" id="path122"></path>
              <path class="o" d="m 37.41,118.78 c 1.73,-0.96 2.72,-2.98 1.95,-4.18 -0.95,-1.48 -2.32,-1.15 -3.59,-0.56 -1.72,0.79 -2.74,2.9 -2.13,4.14 0.56,1.15 2.28,1.43 3.77,0.61 z" id="path124"></path>
              <path class="o" d="m 68.82,150.89 c -1.72,-0.38 -2.45,0.82 -2.93,2.12 -0.65,1.77 0.13,3.98 1.44,4.43 1.22,0.42 2.63,-0.59 3.09,-2.21 0.54,-1.89 -0.21,-4.02 -1.6,-4.33 z" id="path126"></path>
              <path class="o" d="m 115.45,155.91 c -1.49,0.94 -1.15,2.3 -0.56,3.56 0.8,1.71 2.92,2.73 4.17,2.12 1.16,-0.56 1.44,-2.27 0.61,-3.74 -0.97,-1.72 -3.01,-2.7 -4.22,-1.94 z" id="path128"></path>
              <path class="o" d="m 156.3,125.13 c -1.91,-0.54 -4.05,0.2 -4.36,1.59 -0.38,1.71 0.83,2.44 2.14,2.92 1.78,0.65 4,-0.12 4.46,-1.42 0.42,-1.21 -0.6,-2.61 -2.24,-3.08 z" id="path130"></path>
              <path class="o" d="m 158.85,76.22 c -1.73,0.96 -2.72,2.98 -1.95,4.18 0.95,1.48 2.32,1.15 3.59,0.56 1.72,-0.79 2.74,-2.9 2.13,-4.14 -0.56,-1.15 -2.28,-1.43 -3.77,-0.61 z" id="path132"></path>
              <path class="o" d="m 127.44,44.11 c 1.72,0.38 2.45,-0.82 2.93,-2.12 0.65,-1.77 -0.13,-3.98 -1.44,-4.43 -1.22,-0.42 -2.63,0.59 -3.09,2.21 -0.54,1.89 0.21,4.02 1.6,4.33 z" id="path134"></path>
              <path class="o" d="m 80.81,39.09 c 1.49,-0.94 1.15,-2.3 0.56,-3.56 -0.8,-1.71 -2.92,-2.73 -4.17,-2.12 -1.16,0.56 -1.44,2.27 -0.61,3.74 0.97,1.72 3.01,2.7 4.22,1.94 z" id="path136"></path>
            </g>
            <g id="j">
              <path class="o" d="m 38.17,62.27 c 2.17,0.18 4.06,-1.01 4.25,-2.66 0.19,-1.7 -1.55,-3.31 -3.8,-3.53 -2.31,-0.22 -4.23,1 -4.33,2.75 -0.1,1.74 1.6,3.25 3.88,3.44 z" id="path139"></path>
              <path class="o" d="m 31.83,109.79 c -1.08,-1.34 -3.45,-1.26 -5.2,0.17 -1.79,1.47 -2.28,3.68 -1.1,4.99 1.17,1.3 3.45,1.18 5.19,-0.29 1.66,-1.39 2.15,-3.57 1.1,-4.87 z" id="path141"></path>
              <path class="o" d="m 60.08,152.77 c -1.71,-0.19 -3.33,1.53 -3.55,3.77 -0.22,2.3 1.01,4.2 2.78,4.31 1.75,0.1 3.27,-1.59 3.46,-3.85 0.18,-2.15 -1.02,-4.04 -2.69,-4.22 z" id="path143"></path>
              <path class="o" d="m 110.62,163.37 c -1.34,1.07 -1.26,3.43 0.18,5.16 1.48,1.78 3.71,2.27 5.03,1.1 1.31,-1.16 1.18,-3.42 -0.3,-5.15 -1.41,-1.65 -3.6,-2.14 -4.9,-1.1 z" id="path145"></path>
              <path class="o" d="m 158.09,132.73 c -2.17,-0.18 -4.06,1.01 -4.25,2.66 -0.19,1.7 1.55,3.31 3.8,3.53 2.31,0.22 4.23,-1 4.33,-2.75 0.1,-1.74 -1.6,-3.25 -3.88,-3.44 z" id="path147"></path>
              <path class="o" d="m 164.43,85.21 c 1.08,1.34 3.45,1.26 5.2,-0.17 1.79,-1.47 2.28,-3.68 1.1,-4.99 -1.17,-1.3 -3.45,-1.18 -5.19,0.29 -1.66,1.39 -2.15,3.57 -1.1,4.87 z" id="path149"></path>
              <path class="o" d="m 136.17,42.23 c 1.71,0.19 3.33,-1.53 3.55,-3.77 0.22,-2.3 -1.01,-4.2 -2.78,-4.31 -1.75,-0.1 -3.27,1.59 -3.46,3.85 -0.18,2.15 1.02,4.04 2.69,4.22 z" id="path151"></path>
              <path class="o" d="m 85.64,31.63 c 1.34,-1.07 1.26,-3.43 -0.18,-5.16 -1.48,-1.78 -3.71,-2.27 -5.03,-1.1 -1.31,1.16 -1.18,3.42 0.3,5.15 1.41,1.65 3.6,2.14 4.9,1.1 z" id="path153"></path>
            </g>
            <g id="k">
              <path class="o" d="m 41.69,49.96 c 0.38,-2.22 -1.67,-4.58 -4.42,-5.1 -2.63,-0.49 -4.97,0.75 -5.4,2.86 -0.47,2.27 1.42,4.58 4.22,5.17 2.59,0.55 5.24,-0.85 5.59,-2.94 z" id="path156"></path>
              <path class="o" d="m 24.45,103.46 c -1.31,-1.84 -4.44,-2.07 -6.74,-0.51 -2.21,1.5 -2.97,4.02 -1.77,5.82 1.29,1.94 4.27,2.25 6.67,0.7 2.22,-1.43 3.09,-4.28 1.85,-6.01 z" id="path158"></path>
              <path class="o" d="m 50.37,153.47 c -2.23,-0.38 -4.61,1.65 -5.12,4.38 -0.49,2.61 0.76,4.93 2.89,5.37 2.29,0.47 4.61,-1.4 5.2,-4.19 0.54,-2.57 -0.86,-5.2 -2.97,-5.56 z" id="path160"></path>
              <path class="o" d="m 104.27,170.69 c -1.85,1.3 -2.08,4.41 -0.5,6.7 1.51,2.19 4.05,2.96 5.87,1.77 1.95,-1.27 2.26,-4.23 0.69,-6.62 -1.45,-2.2 -4.31,-3.08 -6.06,-1.85 z" id="path162"></path>
              <path class="o" d="m 154.57,145.04 c -0.38,2.22 1.67,4.58 4.42,5.1 2.63,0.49 4.97,-0.75 5.4,-2.86 0.47,-2.27 -1.42,-4.58 -4.22,-5.17 -2.59,-0.55 -5.24,0.85 -5.59,2.94 z" id="path164"></path>
              <path class="o" d="m 180.33,86.23 c -1.29,-1.94 -4.27,-2.25 -6.67,-0.7 -2.22,1.43 -3.09,4.28 -1.85,6.01 1.31,1.84 4.44,2.07 6.74,0.51 2.21,-1.5 2.97,-4.02 1.77,-5.82 z" id="path166"></path>
              <path class="o" d="m 145.89,41.53 c 2.23,0.38 4.61,-1.65 5.12,-4.38 0.49,-2.61 -0.76,-4.93 -2.89,-5.37 -2.29,-0.47 -4.61,1.4 -5.2,4.19 -0.54,2.57 0.86,5.2 2.97,5.56 z" id="path168"></path>
              <path class="o" d="m 91.99,24.31 c 1.85,-1.3 2.08,-4.41 0.5,-6.7 -1.51,-2.19 -4.05,-2.96 -5.87,-1.77 -1.95,1.27 -2.26,4.23 -0.69,6.62 1.45,2.2 4.31,3.08 6.06,1.85 z" id="path170"></path>
            </g>
            <g id="l">
              <path class="o" d="m 36.78,41.56 c 2.86,0.8 4.63,1.02 6.47,0.13 3.21,-1.55 3.09,-5.12 0.44,-7.8 -2.5,-2.52 -7.05,-3.4 -10.5,-2.03 -3.24,1.29 -4.26,3.91 -2.09,6.64 1.38,1.74 2.83,2.26 5.68,3.06 z" id="path173"></path>
              <path class="o" d="m 19.66,96.51 c 1.16,-3.35 -1.47,-5.8 -5.24,-5.84 -3.56,-0.03 -7.4,2.54 -8.86,5.93 -1.37,3.19 -0.22,5.76 3.25,6.17 2.21,0.26 3.6,-0.38 6.19,-1.82 2.59,-1.44 3.99,-2.53 4.66,-4.45 z" id="path175"></path>
              <path class="o" d="m 34.19,151.45 c -2.54,2.48 -3.41,6.99 -2.03,10.43 1.3,3.22 3.95,4.24 6.69,2.09 1.75,-1.37 2.27,-2.8 3.07,-5.64 0.8,-2.84 1.02,-4.6 0.12,-6.42 -1.57,-3.19 -5.16,-3.08 -7.86,-0.45 z" id="path177"></path>
              <path class="o" d="m 97.28,175.43 c -3.38,-1.16 -5.84,1.45 -5.87,5.2 -0.03,3.53 2.57,7.35 5.99,8.81 3.21,1.37 5.8,0.23 6.21,-3.22 0.26,-2.19 -0.39,-3.58 -1.85,-6.15 -1.45,-2.57 -2.56,-3.97 -4.49,-4.63 z" id="path179"></path>
              <path class="o" d="m 159.48,153.44 c -2.86,-0.8 -4.63,-1.02 -6.47,-0.13 -3.21,1.55 -3.09,5.12 -0.44,7.8 2.5,2.52 7.05,3.4 10.5,2.03 3.24,-1.29 4.26,-3.91 2.09,-6.64 -1.38,-1.74 -2.83,-2.26 -5.68,-3.06 z" id="path181"></path>
              <path class="o" d="m 162.07,43.55 c 2.54,-2.48 3.41,-6.99 2.03,-10.42 -1.3,-3.22 -3.95,-4.24 -6.69,-2.09 -1.75,1.37 -2.27,2.8 -3.07,5.64 -0.8,2.84 -1.02,4.6 -0.12,6.42 1.57,3.19 5.16,3.08 7.86,0.45 z" id="path183"></path>
              <path class="o" d="m 98.98,19.57 c 3.38,1.16 5.84,-1.45 5.87,-5.2 0.03,-3.53 -2.57,-7.35 -5.99,-8.81 -3.21,-1.37 -5.8,-0.23 -6.21,3.22 -0.26,2.19 0.39,3.58 1.85,6.15 1.45,2.57 2.56,3.97 4.49,4.63 z" id="path185"></path>
              <path class="o" d="m 187.44,92.22 c -2.21,-0.26 -3.6,0.38 -6.19,1.82 -2.59,1.44 -3.99,2.53 -4.66,4.45 -1.16,3.35 1.47,5.8 5.24,5.84 3.56,0.03 7.4,-2.54 8.86,-5.93 1.37,-3.19 0.22,-5.76 -3.25,-6.17 z" id="path187"></path>
            </g>
          </g>
        </g>
      </g>
      <g id="g209" style="fill:#232323;fill-opacity:1" transform="matrix(3,0,0,3,-4.9919462,-4.985121)">
        <path class="p" d="m 195.1,46.14 h 12.28 c 1.32,0 2.41,0.35 3.25,1.06 0.84,0.71 1.44,1.64 1.81,2.8 l 12.73,41.26 c 0.57,1.8 1.15,3.76 1.74,5.87 0.59,2.12 1.14,4.34 1.65,6.67 0.42,-2.33 0.91,-4.55 1.47,-6.67 0.56,-2.12 1.11,-4.07 1.65,-5.87 L 244.32,50 c 0.3,-0.99 0.89,-1.88 1.76,-2.67 0.87,-0.79 1.94,-1.19 3.21,-1.19 h 12.37 l -26.37,77.08 h -13.82 z" id="path193" inkscape:label="path193" style="display:inline;fill:#232323;fill-opacity:1"></path>
        <path class="p" d="m 282.07,67.51 c 3.55,0 6.79,0.65 9.71,1.96 2.92,1.31 5.43,3.17 7.52,5.61 2.09,2.43 3.72,5.39 4.88,8.86 1.16,3.47 1.74,7.38 1.74,11.72 0,4.34 -0.58,8.31 -1.74,11.82 -1.16,3.51 -2.78,6.49 -4.88,8.94 -2.09,2.45 -4.6,4.34 -7.52,5.66 -2.92,1.32 -6.16,1.98 -9.71,1.98 -3.55,0 -6.84,-0.66 -9.78,-1.98 -2.94,-1.32 -5.46,-3.21 -7.59,-5.66 -2.12,-2.45 -3.76,-5.43 -4.92,-8.94 -1.16,-3.51 -1.74,-7.45 -1.74,-11.82 0,-4.37 0.58,-8.24 1.74,-11.72 1.16,-3.47 2.8,-6.43 4.92,-8.86 2.12,-2.43 4.65,-4.3 7.59,-5.61 2.93,-1.3 6.19,-1.96 9.78,-1.96 z m 0,44.39 c 3.22,0 5.59,-1.33 7.11,-3.99 1.52,-2.66 2.28,-6.71 2.28,-12.14 0,-5.43 -0.76,-9.47 -2.28,-12.11 -1.52,-2.64 -3.89,-3.97 -7.11,-3.97 -3.22,0 -5.73,1.32 -7.27,3.97 -1.54,2.65 -2.3,6.68 -2.3,12.11 0,5.43 0.77,9.48 2.3,12.14 1.54,2.66 3.96,3.99 7.27,3.99 z" id="path195" style="fill:#232323;fill-opacity:1"></path>
        <path class="p" d="m 334.45,67.51 c 3.55,0 6.79,0.65 9.71,1.96 2.92,1.31 5.43,3.17 7.52,5.61 2.09,2.43 3.72,5.39 4.88,8.86 1.16,3.47 1.74,7.38 1.74,11.72 0,4.34 -0.58,8.31 -1.74,11.82 -1.16,3.51 -2.79,6.49 -4.88,8.94 -2.09,2.45 -4.6,4.34 -7.52,5.66 -2.92,1.32 -6.16,1.98 -9.71,1.98 -3.55,0 -6.84,-0.66 -9.78,-1.98 -2.94,-1.32 -5.46,-3.21 -7.59,-5.66 -2.12,-2.45 -3.76,-5.43 -4.92,-8.94 -1.16,-3.51 -1.74,-7.45 -1.74,-11.82 0,-4.37 0.58,-8.24 1.74,-11.72 1.16,-3.47 2.8,-6.43 4.92,-8.86 2.12,-2.43 4.65,-4.3 7.59,-5.61 2.94,-1.3 6.19,-1.96 9.78,-1.96 z m 0,44.39 c 3.22,0 5.59,-1.33 7.11,-3.99 1.52,-2.66 2.28,-6.71 2.28,-12.14 0,-5.43 -0.76,-9.47 -2.28,-12.11 -1.52,-2.64 -3.89,-3.97 -7.11,-3.97 -3.22,0 -5.73,1.32 -7.27,3.97 -1.53,2.64 -2.3,6.68 -2.3,12.11 0,5.43 0.77,9.48 2.3,12.14 1.54,2.66 3.96,3.99 7.27,3.99 z" id="path197" style="fill:#232323;fill-opacity:1"></path>
        <path class="p" d="M 365.97,123.22 V 68.36 h 8.31 c 0.69,0 1.27,0.07 1.74,0.21 0.47,0.14 0.86,0.36 1.17,0.66 0.32,0.3 0.56,0.7 0.72,1.19 0.16,0.49 0.31,1.09 0.43,1.8 l 0.77,5.13 c 1.72,-3.1 3.64,-5.55 5.78,-7.35 2.14,-1.8 4.47,-2.7 7,-2.7 2.14,0 3.85,0.6 5.15,1.8 l -1.81,12.06 c -0.12,0.74 -0.36,1.26 -0.72,1.56 -0.36,0.3 -0.84,0.45 -1.44,0.45 -0.51,0 -1.11,-0.08 -1.81,-0.24 -0.69,-0.16 -1.57,-0.24 -2.62,-0.24 -3.67,0 -6.56,2.29 -8.67,6.88 v 33.65 z" id="path199" style="fill:#232323;fill-opacity:1"></path>
        <path class="p" d="m 397.85,46.14 h 12.28 c 1.32,0 2.41,0.35 3.25,1.06 0.84,0.71 1.45,1.64 1.81,2.8 l 12.73,41.26 c 0.57,1.8 1.15,3.76 1.74,5.87 0.59,2.12 1.14,4.34 1.65,6.67 0.42,-2.33 0.91,-4.55 1.47,-6.67 0.56,-2.12 1.11,-4.07 1.65,-5.87 L 447.07,50 c 0.3,-0.99 0.89,-1.88 1.76,-2.67 0.87,-0.79 1.94,-1.19 3.21,-1.19 h 12.37 l -26.37,77.08 h -13.82 z" id="path201" style="fill:#232323;fill-opacity:1"></path>
        <path class="p" d="m 484.82,67.51 c 3.55,0 6.79,0.65 9.71,1.96 2.92,1.31 5.43,3.17 7.52,5.61 2.09,2.43 3.72,5.39 4.88,8.86 1.16,3.47 1.74,7.38 1.74,11.72 0,4.34 -0.58,8.31 -1.74,11.82 -1.16,3.51 -2.79,6.49 -4.88,8.94 -2.09,2.45 -4.6,4.34 -7.52,5.66 -2.92,1.32 -6.16,1.98 -9.71,1.98 -3.55,0 -6.84,-0.66 -9.78,-1.98 -2.94,-1.32 -5.46,-3.21 -7.59,-5.66 -2.12,-2.45 -3.76,-5.43 -4.92,-8.94 -1.16,-3.51 -1.74,-7.45 -1.74,-11.82 0,-4.37 0.58,-8.24 1.74,-11.72 1.16,-3.47 2.8,-6.43 4.92,-8.86 2.12,-2.43 4.65,-4.3 7.59,-5.61 2.94,-1.3 6.19,-1.96 9.78,-1.96 z m 0,44.39 c 3.22,0 5.59,-1.33 7.11,-3.99 1.52,-2.66 2.28,-6.71 2.28,-12.14 0,-5.43 -0.76,-9.47 -2.28,-12.11 -1.52,-2.64 -3.89,-3.97 -7.11,-3.97 -3.22,0 -5.73,1.32 -7.27,3.97 -1.53,2.64 -2.3,6.68 -2.3,12.11 0,5.43 0.77,9.48 2.3,12.14 1.54,2.66 3.96,3.99 7.27,3.99 z" id="path203" style="fill:#232323;fill-opacity:1"></path>
        <path class="p" d="m 536.39,67.51 c 3.1,0 5.94,0.56 8.51,1.69 2.57,1.13 4.79,2.77 6.64,4.92 1.85,2.15 3.3,4.79 4.33,7.91 1.04,3.12 1.56,6.66 1.56,10.61 0,1.23 -0.05,2.24 -0.14,3.02 -0.09,0.78 -0.26,1.39 -0.5,1.85 -0.24,0.46 -0.56,0.78 -0.97,0.95 -0.41,0.18 -0.93,0.26 -1.56,0.26 h -27 c 0.45,4.59 1.64,7.91 3.57,9.97 1.93,2.06 4.41,3.09 7.45,3.09 1.62,0 3.03,-0.23 4.2,-0.69 1.17,-0.46 2.22,-0.97 3.14,-1.53 0.92,-0.56 1.76,-1.08 2.53,-1.53 0.77,-0.46 1.57,-0.69 2.42,-0.69 1.11,0 1.96,0.48 2.53,1.43 l 4.06,5.87 c -1.44,1.94 -3,3.52 -4.67,4.73 -1.67,1.22 -3.39,2.17 -5.15,2.86 -1.76,0.69 -3.52,1.16 -5.28,1.43 -1.76,0.27 -3.44,0.4 -5.03,0.4 -3.28,0 -6.36,-0.63 -9.23,-1.88 -2.88,-1.25 -5.39,-3.11 -7.54,-5.58 -2.15,-2.47 -3.85,-5.54 -5.1,-9.21 -1.25,-3.67 -1.87,-7.94 -1.87,-12.8 0,-3.67 0.53,-7.14 1.6,-10.42 1.07,-3.28 2.6,-6.15 4.61,-8.62 2,-2.47 4.43,-4.43 7.27,-5.87 2.84,-1.45 6.06,-2.17 9.64,-2.17 z m 0.27,11.32 c -2.68,0 -4.77,0.89 -6.28,2.67 -1.51,1.78 -2.5,4.35 -2.98,7.7 h 17.47 c 0,-1.3 -0.14,-2.57 -0.43,-3.81 -0.29,-1.23 -0.75,-2.34 -1.4,-3.31 -0.65,-0.97 -1.5,-1.75 -2.55,-2.35 -1.05,-0.6 -2.33,-0.9 -3.84,-0.9 z" id="path205" style="fill:#232323;fill-opacity:1"></path>
        <path class="p" d="m 581.91,124.07 c -2.23,0 -4.19,-0.38 -5.89,-1.14 -1.7,-0.76 -3.13,-1.83 -4.29,-3.23 -1.16,-1.39 -2.04,-3.08 -2.64,-5.05 -0.6,-1.98 -0.9,-4.18 -0.9,-6.61 V 79.68 h -3.97 c -0.72,0 -1.34,-0.27 -1.85,-0.82 -0.51,-0.55 -0.77,-1.35 -0.77,-2.41 v -6.4 l 7.45,-1.69 2.75,-13.38 c 0.36,-1.69 1.38,-2.54 3.07,-2.54 h 7.32 v 16.03 h 11.38 v 11.22 h -11.38 v 27.25 c 0,1.27 0.26,2.32 0.79,3.15 0.53,0.83 1.29,1.24 2.28,1.24 0.51,0 0.94,-0.06 1.29,-0.19 0.35,-0.13 0.65,-0.26 0.9,-0.42 0.25,-0.16 0.5,-0.3 0.72,-0.42 0.23,-0.12 0.49,-0.19 0.79,-0.19 0.42,0 0.76,0.11 1.02,0.34 0.25,0.23 0.52,0.59 0.79,1.08 l 4.24,7.78 c -1.81,1.59 -3.84,2.78 -6.1,3.57 -2.26,0.79 -4.59,1.19 -7,1.19 z" id="path207" style="fill:#232323;fill-opacity:1"></path>
      </g>
      <g id="g259" style="fill:#333333;fill-opacity:1" transform="matrix(3,0,0,3,-4.9919462,-4.985121)">
        <path class="q" d="m 225.27,148.74 v 8.61 h -3.1 v -23.03 h 6.8 c 1.46,0 2.72,0.17 3.8,0.51 1.08,0.34 1.97,0.82 2.68,1.44 0.71,0.62 1.23,1.37 1.58,2.25 0.35,0.88 0.52,1.86 0.52,2.94 0,1.08 -0.19,2.05 -0.56,2.94 -0.38,0.89 -0.92,1.66 -1.65,2.3 -0.73,0.64 -1.62,1.14 -2.69,1.5 -1.07,0.36 -2.3,0.54 -3.68,0.54 z m 0,-2.48 h 3.7 c 0.89,0 1.67,-0.12 2.35,-0.35 0.68,-0.24 1.25,-0.56 1.71,-0.99 0.46,-0.43 0.81,-0.93 1.04,-1.52 0.23,-0.59 0.35,-1.24 0.35,-1.94 0,-1.47 -0.45,-2.61 -1.36,-3.44 -0.91,-0.83 -2.27,-1.24 -4.11,-1.24 h -3.7 v 9.48 z" id="path211" style="fill:#333333;fill-opacity:1"></path>
        <path class="q" d="m 241.03,157.36 v -16.28 h 1.64 c 0.31,0 0.52,0.06 0.64,0.18 0.12,0.12 0.2,0.32 0.24,0.61 l 0.19,2.54 c 0.56,-1.14 1.25,-2.02 2.07,-2.66 0.82,-0.64 1.78,-0.96 2.89,-0.96 0.45,0 0.86,0.05 1.22,0.15 0.36,0.1 0.7,0.24 1.01,0.43 l -0.37,2.14 c -0.07,0.27 -0.24,0.4 -0.5,0.4 -0.15,0 -0.38,-0.05 -0.69,-0.15 -0.31,-0.1 -0.74,-0.15 -1.3,-0.15 -1,0 -1.83,0.29 -2.5,0.87 -0.67,0.58 -1.23,1.42 -1.68,2.52 v 10.37 h -2.86 z" id="path213" style="fill:#333333;fill-opacity:1"></path>
        <path class="q" d="m 265.33,157.36 h -1.27 c -0.28,0 -0.5,-0.04 -0.68,-0.13 -0.17,-0.09 -0.28,-0.27 -0.34,-0.55 l -0.32,-1.51 c -0.43,0.39 -0.85,0.73 -1.25,1.04 -0.41,0.31 -0.84,0.56 -1.29,0.77 -0.45,0.21 -0.93,0.37 -1.44,0.47 -0.51,0.11 -1.07,0.16 -1.7,0.16 -0.63,0 -1.22,-0.09 -1.78,-0.27 -0.55,-0.18 -1.03,-0.44 -1.44,-0.8 -0.41,-0.36 -0.73,-0.8 -0.97,-1.35 -0.24,-0.55 -0.36,-1.18 -0.36,-1.93 0,-0.64 0.18,-1.27 0.53,-1.86 0.35,-0.6 0.92,-1.13 1.71,-1.59 0.79,-0.46 1.82,-0.84 3.09,-1.14 1.28,-0.3 2.83,-0.44 4.68,-0.44 v -1.28 c 0,-1.27 -0.27,-2.23 -0.81,-2.89 -0.54,-0.65 -1.34,-0.98 -2.4,-0.98 -0.7,0 -1.28,0.09 -1.76,0.27 -0.48,0.18 -0.89,0.38 -1.24,0.59 -0.35,0.22 -0.65,0.42 -0.9,0.59 -0.25,0.18 -0.5,0.26 -0.75,0.26 -0.19,0 -0.36,-0.05 -0.51,-0.15 -0.14,-0.1 -0.26,-0.23 -0.35,-0.38 l -0.51,-0.92 c 0.9,-0.87 1.87,-1.52 2.91,-1.94 1.04,-0.42 2.19,-0.64 3.46,-0.64 0.91,0 1.72,0.15 2.43,0.45 0.71,0.3 1.3,0.72 1.78,1.25 0.48,0.54 0.85,1.18 1.09,1.95 0.25,0.76 0.37,1.6 0.37,2.51 v 10.41 z m -7.43,-1.75 c 0.5,0 0.96,-0.05 1.38,-0.15 0.42,-0.1 0.81,-0.25 1.18,-0.43 0.37,-0.19 0.72,-0.42 1.06,-0.68 0.34,-0.27 0.67,-0.57 0.99,-0.92 v -3.36 c -1.32,0 -2.44,0.08 -3.36,0.25 -0.92,0.17 -1.67,0.39 -2.25,0.65 -0.58,0.27 -1,0.59 -1.26,0.95 -0.26,0.37 -0.39,0.78 -0.39,1.23 0,0.45 0.07,0.8 0.21,1.12 0.14,0.31 0.33,0.57 0.56,0.77 0.24,0.2 0.51,0.34 0.84,0.44 0.32,0.09 0.67,0.14 1.04,0.14 z" id="path215" style="fill:#333333;fill-opacity:1"></path>
        <path class="q" d="m 272.65,133.68 v 13.93 h 0.74 c 0.21,0 0.39,-0.03 0.53,-0.09 0.14,-0.06 0.29,-0.18 0.47,-0.36 l 5.14,-5.51 c 0.16,-0.17 0.32,-0.31 0.48,-0.42 0.16,-0.11 0.38,-0.16 0.64,-0.16 h 2.6 l -6,6.38 c -0.15,0.18 -0.3,0.34 -0.44,0.48 -0.14,0.14 -0.31,0.26 -0.49,0.37 0.19,0.13 0.37,0.28 0.52,0.44 0.16,0.17 0.3,0.36 0.44,0.57 l 6.37,8.04 h -2.57 c -0.24,0 -0.44,-0.05 -0.6,-0.14 -0.17,-0.09 -0.32,-0.23 -0.47,-0.43 l -5.35,-6.67 c -0.16,-0.23 -0.32,-0.37 -0.48,-0.44 -0.16,-0.07 -0.4,-0.1 -0.72,-0.1 h -0.8 v 7.78 h -2.88 v -23.67 h 2.88 z" id="path217" style="fill:#333333;fill-opacity:1"></path>
        <path class="q" d="m 291.45,157.61 c -1.29,0 -2.27,-0.36 -2.97,-1.08 -0.69,-0.72 -1.04,-1.75 -1.04,-3.1 v -9.96 h -1.96 c -0.17,0 -0.32,-0.05 -0.43,-0.15 -0.12,-0.1 -0.18,-0.26 -0.18,-0.47 v -1.14 l 2.67,-0.34 0.66,-5.03 c 0.02,-0.16 0.09,-0.29 0.21,-0.39 0.12,-0.1 0.27,-0.15 0.45,-0.15 h 1.45 v 5.61 h 4.66 v 2.07 h -4.66 v 9.77 c 0,0.69 0.17,1.2 0.5,1.53 0.33,0.33 0.76,0.5 1.29,0.5 0.3,0 0.56,-0.04 0.78,-0.12 0.22,-0.08 0.41,-0.17 0.57,-0.27 0.16,-0.1 0.3,-0.18 0.41,-0.26 0.11,-0.08 0.21,-0.12 0.3,-0.12 0.15,0 0.28,0.09 0.4,0.27 l 0.84,1.37 c -0.49,0.46 -1.09,0.82 -1.78,1.08 -0.7,0.26 -1.41,0.39 -2.15,0.39 z" id="path219" style="fill:#333333;fill-opacity:1"></path>
        <path class="q" d="m 302.33,135.97 c 0,0.28 -0.06,0.54 -0.17,0.78 -0.11,0.24 -0.26,0.46 -0.45,0.64 -0.19,0.19 -0.4,0.34 -0.65,0.44 -0.25,0.11 -0.51,0.16 -0.79,0.16 -0.28,0 -0.54,-0.05 -0.78,-0.16 -0.24,-0.11 -0.46,-0.25 -0.64,-0.44 -0.19,-0.19 -0.34,-0.4 -0.44,-0.64 -0.11,-0.24 -0.16,-0.5 -0.16,-0.78 0,-0.28 0.05,-0.54 0.16,-0.8 0.11,-0.25 0.25,-0.47 0.44,-0.66 0.19,-0.19 0.4,-0.34 0.64,-0.44 0.24,-0.11 0.5,-0.16 0.78,-0.16 0.28,0 0.54,0.05 0.79,0.16 0.25,0.11 0.46,0.25 0.65,0.44 0.19,0.19 0.34,0.41 0.45,0.66 0.11,0.25 0.17,0.52 0.17,0.8 z m -0.64,5.11 v 16.28 h -2.86 v -16.28 z" id="path221" style="fill:#333333;fill-opacity:1"></path>
        <path class="q" d="m 309.92,141.08 v 17.48 c 0,0.65 -0.08,1.26 -0.26,1.82 -0.17,0.56 -0.44,1.05 -0.81,1.47 -0.37,0.42 -0.85,0.75 -1.43,0.99 -0.58,0.24 -1.28,0.36 -2.1,0.36 -0.35,0 -0.67,-0.03 -0.96,-0.08 -0.29,-0.05 -0.58,-0.13 -0.87,-0.24 l 0.13,-1.54 c 0.02,-0.14 0.07,-0.23 0.15,-0.27 0.07,-0.04 0.19,-0.06 0.35,-0.06 h 0.63 c 0.84,0 1.43,-0.2 1.78,-0.59 0.35,-0.39 0.53,-1.02 0.53,-1.89 v -17.47 h 2.86 z m 0.64,-5.11 c 0,0.28 -0.05,0.54 -0.17,0.78 -0.11,0.24 -0.26,0.46 -0.45,0.64 -0.19,0.19 -0.41,0.34 -0.65,0.44 -0.25,0.11 -0.51,0.16 -0.79,0.16 -0.28,0 -0.54,-0.05 -0.78,-0.16 -0.24,-0.11 -0.46,-0.25 -0.64,-0.44 -0.19,-0.19 -0.34,-0.4 -0.44,-0.64 -0.1,-0.24 -0.16,-0.5 -0.16,-0.78 0,-0.28 0.05,-0.54 0.16,-0.8 0.11,-0.25 0.25,-0.47 0.44,-0.66 0.19,-0.19 0.4,-0.34 0.64,-0.44 0.24,-0.1 0.5,-0.16 0.78,-0.16 0.28,0 0.54,0.05 0.79,0.16 0.25,0.11 0.46,0.25 0.65,0.44 0.19,0.19 0.34,0.41 0.45,0.66 0.11,0.25 0.17,0.52 0.17,0.8 z" id="path223" style="fill:#333333;fill-opacity:1"></path>
        <path class="q" d="m 317.88,133.68 v 13.93 h 0.74 c 0.21,0 0.39,-0.03 0.53,-0.09 0.14,-0.06 0.29,-0.18 0.47,-0.36 l 5.14,-5.51 c 0.16,-0.17 0.32,-0.31 0.48,-0.42 0.16,-0.11 0.38,-0.16 0.64,-0.16 h 2.6 l -6,6.38 c -0.15,0.18 -0.3,0.34 -0.44,0.48 -0.15,0.14 -0.31,0.26 -0.49,0.37 0.19,0.13 0.37,0.28 0.52,0.44 0.15,0.17 0.3,0.36 0.44,0.57 l 6.36,8.04 h -2.57 c -0.24,0 -0.44,-0.05 -0.6,-0.14 -0.17,-0.09 -0.32,-0.23 -0.47,-0.43 l -5.35,-6.67 c -0.16,-0.23 -0.32,-0.37 -0.48,-0.44 -0.16,-0.07 -0.4,-0.1 -0.72,-0.1 h -0.8 v 7.78 H 315 v -23.67 z" id="path225" style="fill:#333333;fill-opacity:1"></path>
        <path class="q" d="m 335.89,141.08 h 2.35 c 0.22,0 0.41,0.06 0.56,0.18 0.15,0.12 0.26,0.26 0.32,0.42 l 4.13,10.48 c 0.15,0.39 0.27,0.77 0.35,1.16 0.09,0.39 0.17,0.77 0.24,1.14 0.09,-0.37 0.18,-0.75 0.27,-1.14 0.1,-0.39 0.22,-0.77 0.37,-1.16 l 4.18,-10.48 c 0.06,-0.17 0.17,-0.31 0.31,-0.43 0.14,-0.11 0.32,-0.17 0.54,-0.17 h 2.23 l -6.64,16.28 h -2.59 l -6.64,-16.28 z" id="path227" style="fill:#333333;fill-opacity:1"></path>
        <path class="q" d="m 360.58,140.82 c 1.19,0 2.26,0.2 3.22,0.59 0.96,0.4 1.77,0.96 2.44,1.69 0.67,0.73 1.18,1.61 1.54,2.64 0.36,1.03 0.54,2.19 0.54,3.46 0,1.27 -0.18,2.44 -0.54,3.47 -0.36,1.03 -0.87,1.91 -1.54,2.64 -0.67,0.73 -1.48,1.29 -2.44,1.68 -0.96,0.39 -2.03,0.59 -3.22,0.59 -1.19,0 -2.26,-0.2 -3.22,-0.59 -0.96,-0.39 -1.78,-0.95 -2.45,-1.68 -0.68,-0.73 -1.19,-1.61 -1.56,-2.64 -0.36,-1.03 -0.55,-2.19 -0.55,-3.47 0,-1.28 0.18,-2.43 0.55,-3.46 0.36,-1.03 0.88,-1.91 1.56,-2.64 0.68,-0.73 1.49,-1.29 2.45,-1.69 0.96,-0.4 2.03,-0.59 3.22,-0.59 z m 0,14.53 c 1.61,0 2.81,-0.54 3.6,-1.61 0.79,-1.08 1.19,-2.58 1.19,-4.51 0,-1.93 -0.4,-3.45 -1.19,-4.53 -0.79,-1.08 -1.99,-1.62 -3.6,-1.62 -0.81,0 -1.52,0.14 -2.12,0.42 -0.6,0.28 -1.1,0.68 -1.5,1.21 -0.4,0.53 -0.7,1.17 -0.9,1.94 -0.2,0.77 -0.3,1.63 -0.3,2.6 0,0.97 0.1,1.83 0.3,2.59 0.2,0.76 0.5,1.4 0.9,1.92 0.4,0.52 0.9,0.92 1.5,1.2 0.6,0.28 1.31,0.42 2.12,0.42 z" id="path229" style="fill:#333333;fill-opacity:1"></path>
        <path class="q" d="m 378.45,140.82 c 1.19,0 2.26,0.2 3.22,0.59 0.96,0.4 1.77,0.96 2.44,1.69 0.67,0.73 1.18,1.61 1.54,2.64 0.36,1.03 0.54,2.19 0.54,3.46 0,1.27 -0.18,2.44 -0.54,3.47 -0.36,1.03 -0.87,1.91 -1.54,2.64 -0.67,0.73 -1.48,1.29 -2.44,1.68 -0.96,0.39 -2.03,0.59 -3.22,0.59 -1.19,0 -2.26,-0.2 -3.22,-0.59 -0.96,-0.39 -1.78,-0.95 -2.45,-1.68 -0.68,-0.73 -1.19,-1.61 -1.56,-2.64 -0.36,-1.03 -0.55,-2.19 -0.55,-3.47 0,-1.28 0.18,-2.43 0.55,-3.46 0.36,-1.03 0.88,-1.91 1.56,-2.64 0.68,-0.73 1.49,-1.29 2.45,-1.69 0.96,-0.4 2.03,-0.59 3.22,-0.59 z m 0,14.53 c 1.61,0 2.81,-0.54 3.6,-1.61 0.79,-1.08 1.19,-2.58 1.19,-4.51 0,-1.93 -0.4,-3.45 -1.19,-4.53 -0.79,-1.08 -1.99,-1.62 -3.6,-1.62 -0.81,0 -1.52,0.14 -2.12,0.42 -0.6,0.28 -1.1,0.68 -1.5,1.21 -0.4,0.53 -0.7,1.17 -0.9,1.94 -0.2,0.77 -0.3,1.63 -0.3,2.6 0,0.97 0.1,1.83 0.3,2.59 0.2,0.76 0.5,1.4 0.9,1.92 0.4,0.52 0.9,0.92 1.5,1.2 0.6,0.28 1.31,0.42 2.12,0.42 z" id="path231" style="fill:#333333;fill-opacity:1"></path>
        <path class="q" d="m 389.74,157.36 v -16.28 h 1.64 c 0.31,0 0.53,0.06 0.64,0.18 0.12,0.12 0.2,0.32 0.24,0.61 l 0.19,2.54 c 0.56,-1.14 1.25,-2.02 2.07,-2.66 0.82,-0.64 1.78,-0.96 2.89,-0.96 0.45,0 0.86,0.05 1.22,0.15 0.36,0.1 0.7,0.24 1.01,0.43 l -0.37,2.14 c -0.07,0.27 -0.24,0.4 -0.5,0.4 -0.15,0 -0.38,-0.05 -0.69,-0.15 -0.31,-0.1 -0.74,-0.15 -1.3,-0.15 -1,0 -1.83,0.29 -2.5,0.87 -0.67,0.58 -1.23,1.42 -1.68,2.52 v 10.37 h -2.86 z" id="path233" style="fill:#333333;fill-opacity:1"></path>
        <path class="q" d="m 408.9,162.87 v -21.79 h 1.7 c 0.41,0 0.66,0.2 0.77,0.59 l 0.24,1.93 c 0.7,-0.85 1.49,-1.53 2.39,-2.04 0.9,-0.51 1.93,-0.77 3.09,-0.77 0.93,0 1.78,0.18 2.54,0.54 0.76,0.36 1.41,0.89 1.95,1.59 0.54,0.7 0.95,1.57 1.24,2.61 0.29,1.04 0.43,2.23 0.43,3.58 0,1.2 -0.16,2.32 -0.48,3.35 -0.32,1.03 -0.78,1.93 -1.38,2.68 -0.6,0.76 -1.34,1.35 -2.21,1.78 -0.87,0.43 -1.86,0.65 -2.95,0.65 -1.01,0 -1.87,-0.17 -2.58,-0.5 -0.71,-0.33 -1.34,-0.8 -1.89,-1.41 v 7.2 h -2.86 z m 7.25,-19.77 c -0.93,0 -1.75,0.21 -2.45,0.64 -0.7,0.43 -1.35,1.03 -1.94,1.82 v 7.87 c 0.53,0.71 1.1,1.21 1.73,1.49 0.63,0.29 1.33,0.43 2.1,0.43 1.51,0 2.67,-0.54 3.49,-1.62 0.82,-1.08 1.22,-2.63 1.22,-4.63 0,-1.06 -0.09,-1.97 -0.28,-2.73 -0.19,-0.76 -0.46,-1.38 -0.81,-1.87 -0.35,-0.49 -0.79,-0.84 -1.3,-1.07 -0.51,-0.23 -1.1,-0.34 -1.75,-0.34 z" id="path235" style="fill:#333333;fill-opacity:1"></path>
        <path class="q" d="m 433.23,140.82 c 1.19,0 2.26,0.2 3.22,0.59 0.96,0.4 1.77,0.96 2.44,1.69 0.67,0.73 1.18,1.61 1.54,2.64 0.36,1.03 0.54,2.19 0.54,3.46 0,1.27 -0.18,2.44 -0.54,3.47 -0.36,1.03 -0.87,1.91 -1.54,2.64 -0.67,0.73 -1.48,1.29 -2.44,1.68 -0.96,0.39 -2.03,0.59 -3.22,0.59 -1.19,0 -2.26,-0.2 -3.22,-0.59 -0.96,-0.39 -1.78,-0.95 -2.45,-1.68 -0.68,-0.73 -1.19,-1.61 -1.56,-2.64 -0.36,-1.03 -0.55,-2.19 -0.55,-3.47 0,-1.28 0.18,-2.43 0.55,-3.46 0.36,-1.03 0.88,-1.91 1.56,-2.64 0.68,-0.73 1.49,-1.29 2.45,-1.69 0.96,-0.4 2.03,-0.59 3.22,-0.59 z m 0,14.53 c 1.61,0 2.81,-0.54 3.6,-1.61 0.79,-1.08 1.19,-2.58 1.19,-4.51 0,-1.93 -0.4,-3.45 -1.19,-4.53 -0.79,-1.08 -1.99,-1.62 -3.6,-1.62 -0.81,0 -1.52,0.14 -2.12,0.42 -0.6,0.28 -1.1,0.68 -1.5,1.21 -0.4,0.53 -0.7,1.17 -0.9,1.94 -0.2,0.77 -0.3,1.63 -0.3,2.6 0,0.97 0.1,1.83 0.3,2.59 0.2,0.76 0.5,1.4 0.9,1.92 0.4,0.52 0.9,0.92 1.5,1.2 0.6,0.28 1.31,0.42 2.12,0.42 z" id="path237" style="fill:#333333;fill-opacity:1"></path>
        <path class="q" d="m 455.97,157.36 c -0.41,0 -0.66,-0.2 -0.77,-0.59 l -0.26,-1.98 c -0.7,0.85 -1.49,1.52 -2.39,2.03 -0.89,0.51 -1.92,0.76 -3.08,0.76 -0.93,0 -1.78,-0.18 -2.54,-0.54 -0.76,-0.36 -1.41,-0.89 -1.95,-1.58 -0.54,-0.7 -0.95,-1.56 -1.24,-2.6 -0.29,-1.04 -0.43,-2.23 -0.43,-3.58 0,-1.2 0.16,-2.32 0.48,-3.35 0.32,-1.03 0.79,-1.93 1.39,-2.69 0.61,-0.76 1.34,-1.36 2.21,-1.79 0.87,-0.43 1.85,-0.65 2.96,-0.65 1,0 1.85,0.17 2.56,0.51 0.71,0.34 1.34,0.81 1.9,1.42 v -9.03 h 2.86 v 23.67 h -1.7 z m -5.55,-2.09 c 0.93,0 1.75,-0.21 2.45,-0.64 0.7,-0.43 1.35,-1.03 1.94,-1.82 v -7.87 c -0.52,-0.71 -1.1,-1.2 -1.73,-1.49 -0.63,-0.28 -1.32,-0.43 -2.08,-0.43 -1.52,0 -2.69,0.54 -3.5,1.62 -0.81,1.08 -1.22,2.63 -1.22,4.63 0,1.06 0.09,1.97 0.27,2.72 0.18,0.75 0.45,1.38 0.8,1.86 0.35,0.48 0.79,0.84 1.3,1.07 0.51,0.23 1.1,0.34 1.77,0.34 z" id="path239" style="fill:#333333;fill-opacity:1"></path>
        <path class="q" d="m 469.07,140.82 c 1.19,0 2.26,0.2 3.22,0.59 0.96,0.4 1.77,0.96 2.44,1.69 0.67,0.73 1.18,1.61 1.54,2.64 0.36,1.03 0.54,2.19 0.54,3.46 0,1.27 -0.18,2.44 -0.54,3.47 -0.36,1.03 -0.87,1.91 -1.54,2.64 -0.67,0.73 -1.48,1.29 -2.44,1.68 -0.96,0.39 -2.03,0.59 -3.22,0.59 -1.19,0 -2.26,-0.2 -3.22,-0.59 -0.96,-0.39 -1.78,-0.95 -2.45,-1.68 -0.68,-0.73 -1.19,-1.61 -1.56,-2.64 -0.36,-1.03 -0.55,-2.19 -0.55,-3.47 0,-1.28 0.18,-2.43 0.55,-3.46 0.36,-1.03 0.88,-1.91 1.56,-2.64 0.68,-0.73 1.49,-1.29 2.45,-1.69 0.96,-0.4 2.03,-0.59 3.22,-0.59 z m 0,14.53 c 1.61,0 2.81,-0.54 3.6,-1.61 0.79,-1.08 1.19,-2.58 1.19,-4.51 0,-1.93 -0.4,-3.45 -1.19,-4.53 -0.79,-1.08 -1.99,-1.62 -3.6,-1.62 -0.81,0 -1.52,0.14 -2.12,0.42 -0.6,0.28 -1.1,0.68 -1.5,1.21 -0.4,0.53 -0.7,1.17 -0.9,1.94 -0.2,0.77 -0.3,1.63 -0.3,2.6 0,0.97 0.1,1.83 0.3,2.59 0.2,0.76 0.5,1.4 0.9,1.92 0.4,0.52 0.9,0.92 1.5,1.2 0.6,0.28 1.31,0.42 2.12,0.42 z" id="path241" style="fill:#333333;fill-opacity:1"></path>
        <path class="q" d="m 485.29,157.61 c -1.29,0 -2.27,-0.36 -2.97,-1.08 -0.69,-0.72 -1.04,-1.75 -1.04,-3.1 v -9.96 h -1.96 c -0.17,0 -0.32,-0.05 -0.43,-0.15 -0.11,-0.1 -0.18,-0.26 -0.18,-0.47 v -1.14 l 2.67,-0.34 0.66,-5.03 c 0.02,-0.16 0.09,-0.29 0.21,-0.39 0.12,-0.1 0.27,-0.15 0.45,-0.15 h 1.45 v 5.61 h 4.66 v 2.07 h -4.66 v 9.77 c 0,0.69 0.17,1.2 0.5,1.53 0.33,0.33 0.76,0.5 1.29,0.5 0.3,0 0.56,-0.04 0.78,-0.12 0.22,-0.08 0.41,-0.17 0.57,-0.27 0.16,-0.1 0.3,-0.18 0.41,-0.26 0.11,-0.08 0.21,-0.12 0.3,-0.12 0.15,0 0.28,0.09 0.4,0.27 l 0.84,1.37 c -0.49,0.46 -1.09,0.82 -1.78,1.08 -0.7,0.26 -1.41,0.39 -2.15,0.39 z" id="path243" style="fill:#333333;fill-opacity:1"></path>
        <path class="q" d="m 492.35,157.36 v -23.67 h 2.86 v 9.58 c 0.7,-0.74 1.47,-1.33 2.31,-1.78 0.85,-0.44 1.82,-0.67 2.93,-0.67 0.89,0 1.67,0.15 2.35,0.44 0.68,0.29 1.25,0.71 1.7,1.25 0.45,0.54 0.8,1.19 1.04,1.95 0.24,0.76 0.35,1.6 0.35,2.52 v 10.37 h -2.86 v -10.37 c 0,-1.23 -0.28,-2.19 -0.84,-2.87 -0.56,-0.68 -1.42,-1.02 -2.58,-1.02 -0.85,0 -1.64,0.2 -2.37,0.61 -0.73,0.41 -1.41,0.96 -2.03,1.66 v 11.99 h -2.86 z" id="path245" style="fill:#333333;fill-opacity:1"></path>
        <path class="q" d="m 516.66,140.82 c 0.97,0 1.87,0.16 2.7,0.49 0.82,0.33 1.54,0.8 2.14,1.41 0.6,0.62 1.07,1.38 1.41,2.28 0.34,0.91 0.51,1.94 0.51,3.09 0,0.45 -0.05,0.75 -0.14,0.9 -0.1,0.15 -0.28,0.23 -0.55,0.23 H 511.9 c 0.02,1.03 0.16,1.92 0.42,2.68 0.26,0.76 0.61,1.4 1.06,1.9 0.45,0.51 0.98,0.89 1.61,1.14 0.62,0.25 1.32,0.38 2.09,0.38 0.72,0 1.34,-0.08 1.86,-0.25 0.52,-0.17 0.97,-0.34 1.34,-0.54 0.37,-0.2 0.69,-0.37 0.94,-0.54 0.25,-0.17 0.47,-0.25 0.65,-0.25 0.24,0 0.42,0.09 0.55,0.27 l 0.8,1.04 c -0.35,0.43 -0.78,0.8 -1.27,1.12 -0.49,0.32 -1.02,0.58 -1.58,0.78 -0.56,0.2 -1.14,0.36 -1.74,0.46 -0.6,0.1 -1.19,0.15 -1.78,0.15 -1.13,0 -2.16,-0.19 -3.11,-0.57 -0.95,-0.38 -1.77,-0.94 -2.46,-1.67 -0.69,-0.73 -1.23,-1.64 -1.62,-2.72 -0.39,-1.08 -0.58,-2.32 -0.58,-3.73 0,-1.13 0.17,-2.2 0.52,-3.18 0.35,-0.99 0.85,-1.84 1.5,-2.56 0.65,-0.72 1.45,-1.29 2.39,-1.7 0.94,-0.41 2,-0.62 3.18,-0.62 z m 0.06,2.1 c -1.38,0 -2.47,0.4 -3.26,1.2 -0.79,0.8 -1.29,1.9 -1.48,3.32 h 8.86 c 0,-0.66 -0.09,-1.27 -0.27,-1.82 -0.18,-0.55 -0.45,-1.03 -0.8,-1.43 -0.35,-0.4 -0.79,-0.71 -1.29,-0.93 -0.51,-0.22 -1.09,-0.33 -1.74,-0.33 z" id="path247" style="fill:#333333;fill-opacity:1"></path>
        <path class="q" d="m 527.06,157.36 v -16.28 h 1.64 c 0.31,0 0.53,0.06 0.64,0.18 0.12,0.12 0.2,0.32 0.24,0.61 l 0.19,2.54 c 0.56,-1.14 1.25,-2.02 2.07,-2.66 0.82,-0.64 1.78,-0.96 2.89,-0.96 0.45,0 0.86,0.05 1.22,0.15 0.36,0.1 0.7,0.24 1.01,0.43 l -0.37,2.14 c -0.07,0.27 -0.24,0.4 -0.5,0.4 -0.15,0 -0.38,-0.05 -0.69,-0.15 -0.31,-0.1 -0.74,-0.15 -1.3,-0.15 -1,0 -1.83,0.29 -2.5,0.87 -0.67,0.58 -1.23,1.42 -1.68,2.52 v 10.37 h -2.86 z" id="path249" style="fill:#333333;fill-opacity:1"></path>
        <path class="q" d="m 551.36,157.36 h -1.27 c -0.28,0 -0.5,-0.04 -0.68,-0.13 -0.17,-0.09 -0.28,-0.27 -0.34,-0.55 l -0.32,-1.51 c -0.43,0.39 -0.85,0.73 -1.25,1.04 -0.41,0.31 -0.84,0.56 -1.29,0.77 -0.45,0.21 -0.93,0.37 -1.44,0.47 -0.51,0.1 -1.07,0.16 -1.7,0.16 -0.63,0 -1.22,-0.09 -1.78,-0.27 -0.55,-0.18 -1.03,-0.44 -1.44,-0.8 -0.41,-0.35 -0.73,-0.8 -0.97,-1.35 -0.24,-0.55 -0.36,-1.18 -0.36,-1.93 0,-0.64 0.18,-1.27 0.53,-1.86 0.35,-0.59 0.92,-1.13 1.71,-1.59 0.79,-0.46 1.82,-0.84 3.09,-1.14 1.27,-0.3 2.83,-0.44 4.68,-0.44 v -1.28 c 0,-1.27 -0.27,-2.23 -0.81,-2.89 -0.54,-0.66 -1.34,-0.98 -2.4,-0.98 -0.7,0 -1.28,0.09 -1.76,0.27 -0.48,0.18 -0.89,0.38 -1.24,0.59 -0.35,0.21 -0.65,0.42 -0.9,0.59 -0.25,0.18 -0.5,0.26 -0.75,0.26 -0.19,0 -0.36,-0.05 -0.51,-0.15 -0.15,-0.1 -0.26,-0.23 -0.35,-0.38 l -0.51,-0.92 c 0.9,-0.87 1.87,-1.52 2.91,-1.94 1.04,-0.43 2.19,-0.64 3.46,-0.64 0.91,0 1.72,0.15 2.43,0.45 0.71,0.3 1.3,0.72 1.78,1.25 0.48,0.54 0.85,1.18 1.09,1.95 0.25,0.76 0.37,1.6 0.37,2.51 v 10.41 z m -7.43,-1.75 c 0.5,0 0.96,-0.05 1.38,-0.15 0.42,-0.1 0.81,-0.25 1.18,-0.43 0.37,-0.19 0.72,-0.42 1.06,-0.68 0.34,-0.27 0.67,-0.57 0.99,-0.92 v -3.36 c -1.32,0 -2.44,0.08 -3.36,0.25 -0.92,0.17 -1.67,0.39 -2.25,0.65 -0.58,0.27 -1,0.59 -1.26,0.95 -0.26,0.36 -0.39,0.78 -0.39,1.23 0,0.45 0.07,0.8 0.21,1.12 0.14,0.32 0.33,0.57 0.56,0.77 0.24,0.2 0.51,0.34 0.84,0.44 0.32,0.09 0.67,0.14 1.04,0.14 z" id="path251" style="fill:#333333;fill-opacity:1"></path>
        <path class="q" d="m 555.7,162.87 v -21.79 h 1.7 c 0.41,0 0.66,0.2 0.77,0.59 l 0.24,1.93 c 0.7,-0.85 1.49,-1.53 2.39,-2.04 0.9,-0.51 1.93,-0.77 3.09,-0.77 0.93,0 1.78,0.18 2.54,0.54 0.76,0.36 1.41,0.89 1.95,1.59 0.54,0.7 0.95,1.57 1.24,2.61 0.29,1.04 0.43,2.23 0.43,3.58 0,1.2 -0.16,2.32 -0.48,3.35 -0.32,1.03 -0.78,1.93 -1.38,2.68 -0.6,0.76 -1.34,1.35 -2.21,1.78 -0.87,0.43 -1.86,0.65 -2.95,0.65 -1.01,0 -1.87,-0.17 -2.58,-0.5 -0.71,-0.33 -1.34,-0.8 -1.89,-1.41 v 7.2 h -2.86 z m 7.25,-19.77 c -0.93,0 -1.75,0.21 -2.45,0.64 -0.7,0.43 -1.35,1.03 -1.94,1.82 v 7.87 c 0.53,0.71 1.1,1.21 1.73,1.49 0.63,0.29 1.33,0.43 2.1,0.43 1.51,0 2.67,-0.54 3.49,-1.62 0.82,-1.08 1.22,-2.63 1.22,-4.63 0,-1.06 -0.09,-1.97 -0.28,-2.73 -0.19,-0.76 -0.46,-1.38 -0.81,-1.87 -0.35,-0.49 -0.79,-0.84 -1.3,-1.07 -0.51,-0.23 -1.1,-0.34 -1.75,-0.34 z" id="path253" style="fill:#333333;fill-opacity:1"></path>
        <path class="q" d="m 577.27,135.97 c 0,0.28 -0.06,0.54 -0.17,0.78 -0.11,0.24 -0.26,0.46 -0.45,0.64 -0.19,0.19 -0.4,0.34 -0.65,0.44 -0.25,0.11 -0.51,0.16 -0.79,0.16 -0.28,0 -0.54,-0.05 -0.78,-0.16 -0.24,-0.11 -0.46,-0.25 -0.64,-0.44 -0.19,-0.19 -0.34,-0.4 -0.44,-0.64 -0.1,-0.24 -0.16,-0.5 -0.16,-0.78 0,-0.28 0.05,-0.54 0.16,-0.8 0.11,-0.25 0.25,-0.47 0.44,-0.66 0.19,-0.19 0.4,-0.34 0.64,-0.44 0.24,-0.1 0.5,-0.16 0.78,-0.16 0.28,0 0.54,0.05 0.79,0.16 0.25,0.11 0.46,0.25 0.65,0.44 0.19,0.19 0.34,0.41 0.45,0.66 0.11,0.25 0.17,0.52 0.17,0.8 z m -0.64,5.11 v 16.28 h -2.86 v -16.28 z" id="path255" style="fill:#333333;fill-opacity:1"></path>
        <path class="q" d="m 588.12,140.82 c 0.97,0 1.87,0.16 2.7,0.49 0.82,0.33 1.54,0.8 2.14,1.41 0.6,0.62 1.07,1.38 1.41,2.28 0.34,0.91 0.51,1.94 0.51,3.09 0,0.45 -0.05,0.75 -0.14,0.9 -0.1,0.15 -0.28,0.23 -0.55,0.23 h -10.83 c 0.02,1.03 0.16,1.92 0.42,2.68 0.26,0.76 0.61,1.4 1.06,1.9 0.45,0.51 0.98,0.89 1.61,1.14 0.62,0.25 1.32,0.38 2.09,0.38 0.72,0 1.34,-0.08 1.86,-0.25 0.52,-0.17 0.97,-0.34 1.34,-0.54 0.37,-0.2 0.69,-0.37 0.94,-0.54 0.25,-0.17 0.47,-0.25 0.65,-0.25 0.24,0 0.42,0.09 0.55,0.27 l 0.8,1.04 c -0.35,0.43 -0.78,0.8 -1.27,1.12 -0.49,0.32 -1.02,0.58 -1.58,0.78 -0.56,0.2 -1.14,0.36 -1.74,0.46 -0.6,0.1 -1.19,0.15 -1.78,0.15 -1.13,0 -2.16,-0.19 -3.11,-0.57 -0.95,-0.38 -1.77,-0.94 -2.46,-1.67 -0.69,-0.73 -1.23,-1.64 -1.62,-2.72 -0.39,-1.08 -0.58,-2.32 -0.58,-3.73 0,-1.13 0.17,-2.2 0.52,-3.18 0.35,-0.99 0.85,-1.84 1.5,-2.56 0.65,-0.72 1.45,-1.29 2.39,-1.7 0.94,-0.41 2,-0.62 3.18,-0.62 z m 0.06,2.1 c -1.38,0 -2.47,0.4 -3.26,1.2 -0.79,0.8 -1.29,1.9 -1.48,3.32 h 8.86 c 0,-0.66 -0.09,-1.27 -0.27,-1.82 -0.18,-0.55 -0.45,-1.03 -0.8,-1.43 -0.35,-0.4 -0.79,-0.71 -1.29,-0.93 -0.51,-0.22 -1.09,-0.33 -1.74,-0.33 z" id="path257" style="fill:#333333;fill-opacity:1"></path>
      </g>
    </g>
  </g>
</svg>
