<?xml version="1.0" encoding="UTF-8"?><svg id="a" xmlns="http://www.w3.org/2000/svg" viewBox="0 0 88.64 93.15"><defs><style>.c{fill:#005152;}.d{fill:#00a8a2;}.e{fill:#05847c;}</style></defs><g id="b"><path class="c" d="m78.98,92.09c-1.09-1.26-2.19-2.5-3.27-3.76-3.51-4.07-7.17-8.01-8.4-13.46-.36-1.61-.51-3.15-.43-4.61-.55.82-1.06,1.66-1.54,2.53-2.16,3.94-4.18,7.96-6.29,11.92.89.98,1.8,2.03,2.74,3.21,4.13,5.19,10.98,6.37,17.2,4.16Z"/><path class="c" d="m40.36,47.33c-1.26,1.08-2.51,2.19-3.77,3.27-4.08,3.51-8.03,7.16-13.49,8.4-1.61.36-3.15.51-4.62.44.82.55,1.66,1.06,2.54,1.53,3.95,2.15,7.97,4.17,11.94,6.27.98-.89,2.04-1.8,3.22-2.74,5.2-4.13,6.4-10.97,4.19-17.18Z"/><path class="c" d="m48.5,57.79c-1.4-.88-2.59-1.87-3.57-2.95.19.96.42,1.92.71,2.88,1.27,4.31,2.67,8.58,3.99,12.87,1.32.06,2.71.17,4.21.34,6.6.75,12.29-3.25,15.13-9.21-1.66-.12-3.33-.22-4.98-.34-5.36-.4-10.75-.6-15.48-3.58Z"/><path class="e" d="m18.47,59.44c1.47.07,3.01-.07,4.62-.44,5.46-1.24,9.42-4.89,13.49-8.4,1.26-1.08,2.5-2.19,3.77-3.27-.15-.41-.31-.82-.49-1.23-2.38-5.47-7.97-8.72-14.4-8.37-6.73.37-12.67,4.65-14.33,11.23-.16.63-.29,1.26-.41,1.9.3.66.64,1.31,1.05,1.94,1.76,2.72,4.07,4.88,6.7,6.64Z"/><path class="e" d="m66.87,70.25c-.07,1.47.07,3,.43,4.61,1.23,5.45,4.89,9.4,8.4,13.46,1.08,1.25,2.19,2.5,3.27,3.76.41-.15.83-.31,1.23-.49,5.48-2.38,8.74-7.97,8.4-14.39-.36-6.72-4.64-12.64-11.23-14.3-.63-.16-1.26-.29-1.9-.41-.66.3-1.31.64-1.95,1.05-2.73,1.76-4.89,4.07-6.66,6.69Z"/><path class="e" d="m53.83,70.92c-1.5-.17-2.89-.28-4.21-.34.77,2.52,1.51,5.05,2.17,7.6,2.25,1.61,4.64,3.66,7.25,6.52,2.11-3.97,4.14-7.98,6.29-11.92.48-.87.99-1.72,1.54-2.53.16-3.19,1.38-6.02,3.77-8.4-.56-.05-1.12-.1-1.68-.14-2.84,5.95-8.53,9.95-15.13,9.21Z"/><path class="e" d="m36.17,64.52c-1.18.94-2.24,1.85-3.22,2.74,2.33,1.24,4.65,2.5,6.92,3.84,2.73-.45,5.88-.69,9.75-.51-1.32-4.29-2.72-8.56-3.99-12.87-.28-.95-.52-1.91-.71-2.88-2.15-2.37-3.29-5.22-3.28-8.59-.43.36-.86.72-1.29,1.09,2.21,6.21,1.01,13.05-4.19,17.18Z"/><path class="d" d="m66.87,70.25c1.77-2.63,3.93-4.93,6.66-6.69.64-.41,1.29-.75,1.95-1.05-1.59-.3-3.21-.5-4.84-.65-2.39,2.38-3.61,5.21-3.77,8.4Z"/><path class="d" d="m25.47,37.73c6.43-.35,12.02,2.9,14.4,8.37.18.41.34.82.49,1.23.43-.37.86-.73,1.29-1.09,0-.78.06-1.58.18-2.41.72-4.83,1.59-9.7.22-14.47-.98-3.4-2.2-6.88-4.08-9.83-4.28-6.73-12.62-7.54-18.69-2.21-.42.37-.81.78-1.22,1.18-5.67,5.79-7.81,13.07-8.67,20.84-.44,3.97-.32,7.89,1.34,11.51.12-.64.25-1.27.41-1.9,1.66-6.58,7.6-10.86,14.33-11.23Z"/><path class="d" d="m41.61,72.13c3.19,1.95,6.49,3.42,10.18,6.06-.66-2.55-1.39-5.08-2.17-7.6-3.87-.18-7.02.06-9.75.51.58.34,1.16.68,1.74,1.03Z"/><path class="e" d="m5.39,44.52c1.22-1.3.7-2.63-.26-3.76-1.29-1.52-4.11-1.92-4.82-.57-.54,1.02-.15,2.14.85,3.19,1.08,1.14,3.2,2.24,4.23,1.13Z"/><path class="e" d="m5.56,37.11c1.19-1.29.51-2.52-.38-3.58-1.21-1.45-3.51-1.88-4.55-.97-.97.84-.79,2.56.38,3.77,1.37,1.41,3.58,1.83,4.55.79Z"/><path class="e" d="m8.27,28.65c1.02-1.38.33-3.63-1.5-4.94-1.88-1.34-4.14-1.23-5.11.24-.96,1.46-.25,3.61,1.62,4.9,1.77,1.23,4,1.14,4.99-.2Z"/><path class="e" d="m12.49,19.95c1.44-1.73.86-4.79-1.25-6.59-2.02-1.73-4.65-1.81-6.09-.2-1.54,1.73-1.08,4.67,1.04,6.57,1.96,1.75,4.93,1.86,6.29.22Z"/><path class="e" d="m22.27,7.04C21.39,3.62,17.91.6,14.25.08c-3.44-.49-5.63,1.28-5.13,4.71.32,2.19,1.3,3.35,3.36,5.46,2.06,2.11,3.48,3.17,5.5,3.31,3.54.24,5.23-2.9,4.29-6.53Z"/></g></svg>
